<svg viewBox="0 0 128 128" xmlns="http://www.w3.org/2000/svg" role="img" aria-label="Cherub mascot — seal">
  <!-- seal rings -->
  <circle cx="64" cy="64" r="61" fill="#1B2A4A"/>
  <circle cx="64" cy="64" r="61" fill="none" stroke="#C9963B" stroke-width="2.5"/>
  <circle cx="64" cy="64" r="52" fill="#FBF3E2"/>
  <circle cx="64" cy="64" r="52" fill="none" stroke="#C9963B" stroke-width="1.6"/>
  <!-- ring dots -->
  <g fill="#C9963B">
    <circle cx="64" cy="8.5" r="1.7"/>
    <circle cx="119.5" cy="64" r="1.7"/>
    <circle cx="64" cy="119.5" r="1.7"/>
    <circle cx="8.5" cy="64" r="1.7"/>
    <circle cx="103" cy="25" r="1.3"/>
    <circle cx="103" cy="103" r="1.3"/>
    <circle cx="25" cy="103" r="1.3"/>
    <circle cx="25" cy="25" r="1.3"/>
  </g>
  <!-- cherub silhouette (two-tone navy) -->
  <g fill="#1B2A4A">
    <path d="M56 78 C51 58 43 44 30 38 C21 42 17 51 20 59 C26 58 29 61 33 67 C36 65 40 69 45 75 C48 73 51 76 54 81 C56 76 56 79 56 78 Z"/>
    <path d="M72 78 C77 58 85 44 98 38 C107 42 111 51 108 59 C102 58 99 61 95 67 C92 65 88 69 83 75 C80 73 77 76 74 81 C72 76 72 79 72 78 Z"/>
  </g>
  <ellipse cx="64" cy="40" rx="18" ry="4.8" fill="none" stroke="#C9963B" stroke-width="4"/>
  <circle cx="64" cy="72" r="21" fill="#1B2A4A"/>
  <g fill="#FBF3E2">
    <circle cx="57" cy="70" r="2.6"/>
    <circle cx="71" cy="70" r="2.6"/>
  </g>
  <path d="M58 79 Q64 84 70 79" fill="none" stroke="#FBF3E2" stroke-width="2.4" stroke-linecap="round"/>
</svg>
